Coordinates
version=1
nRows=16
nColumns=28
inDegrees=yes

Units are S.I. units (second, meters, Newtons, ...)
Angles are in degrees.

endheader
time	pelvis_tilt	pelvis_list	pelvis_rotation	pelvis_tx	pelvis_ty	pelvis_tz	hip_flexion_r	hip_adduction_r	hip_rotation_r	knee_angle_r	ankle_angle_r	subtalar_angle_r	mtp_angle_r	hip_flexion_l	hip_adduction_l	hip_rotation_l	knee_angle_l	socket_flexion	socket_adduction	socket_rotation	socket_tx	socket_ty	socket_tz	foot_flex	lumbar_extension	lumbar_bending	lumbar_rotation
      0.30833333	      6.84554686	     -1.80175621	    -11.49039910	     -0.38755847	      1.03496833	      0.29255427	     13.81370633	     -0.93921141	     -1.76131806	    -65.39070554	     -0.04982586	    -17.47185048	     17.55004989	     -6.79605159	      0.94973419	      4.80163461	     -5.67038258	      0.00000000	      0.00000000	      0.00000000	      0.00000000	      0.00000000	      0.00000000	      1.42086708	    -18.42178952	     -3.15033990	     10.60968397
      0.31250000	      6.86645131	     -1.77950595	    -11.39967072	     -0.38321869	      1.03510910	      0.29257865	     14.35396438	     -0.84792889	     -1.83862914	    -64.99765939	      0.00864685	    -17.45533886	     17.56243545	     -7.09944501	      1.01337611	      4.80092505	     -5.61295889	      0.00000000	      0.00000000	      0.00000000	      0.00000000	      0.00000000	      0.00000000	      1.47561172	    -18.56695732	     -3.19453393	     10.59057322
      0.31666667	      6.95782673	     -2.06319318	    -10.94319507	     -0.37792155	      1.03565848	      0.29210211	     14.44818734	     -0.58847135	     -2.39516739	    -64.22282925	      0.77780051	    -16.43049643	     17.95188494	     -7.66810417	      0.71956839	      5.26930632	     -5.36670900	      0.00000000	      0.00000000	      0.00000000	      0.00000000	      0.00000000	      0.00000000	      1.58094866	    -18.69529073	     -2.74290076	      9.93411588
      0.32083333	      6.96587273	     -2.04681027	    -10.87336857	     -0.37344858	      1.03576185	      0.29225368	     14.95108009	     -0.49374951	     -2.47165248	    -63.73385493	      0.87036088	    -16.42434013	     17.96656164	     -7.98243319	      0.76490704	      5.28417113	     -5.29501245	      0.00000000	      0.00000000	      0.00000000	      0.00000000	      0.00000000	      0.00000000	      1.66733708	    -18.79029324	     -2.79371363	      9.91130844
      0.32500000	      6.88981149	     -2.35306515	    -10.60932752	     -0.36827748	      1.03608394	      0.29217829	     15.23185261	     -0.04808682	     -2.75973707	    -62.88778498	      1.45408854	    -16.15238420	     18.10878365	     -8.36332373	      0.42029036	      5.51062011	     -5.09246085	      0.00000000	      0.00000000	      0.00000000	      0.00000000	      0.00000000	      0.00000000	      1.79621190	    -18.72977669	     -2.36368410	      9.69380071
      0.32916667	      6.90269915	     -2.32338414	    -10.54934738	     -0.36387920	      1.03609966	      0.29232192	     15.72722230	      0.01909988	     -2.84617105	    -62.35593167	      1.52137926	    -16.13502514	     18.11410141	     -8.66658821	      0.48436687	      5.52794031	     -5.03504670	      0.00000000	      0.00000000	      0.00000000	      0.00000000	      0.00000000	      0.00000000	      1.87707594	    -18.85460937	     -2.43034276	      9.66329988
      0.33333333	      6.99060153	     -2.69478835	    -10.08481998	     -0.35861295	      1.03665302	      0.29197379	     15.71639968	      0.40665729	     -3.39033401	    -61.32759857	      2.05922264	    -15.62217994	     18.18352084	     -9.21026374	      0.06672846	      5.94317213	     -4.84206777	      0.00000000	      0.00000000	      0.00000000	      0.00000000	      0.00000000	      0.00000000	      2.05321885	    -18.97921658	     -1.90916058	      9.16474328
      0.33750000	      7.00573806	     -2.65791066	     -9.99652850	     -0.35392372	      1.03668984	      0.29217294	     16.10342301	      0.46790464	     -3.48370603	    -60.62732065	      2.19441580	    -15.60791287	     18.18451450	     -9.54349405	      0.12960125	      5.98355697	     -4.76426296	      0.00000000	      0.00000000	      0.00000000	      0.00000000	      0.00000000	      0.00000000	      2.14345227	    -19.02398725	     -1.97507457	      9.10561827
      0.34166667	      7.05142732	     -2.94417730	     -9.63757136	     -0.34895251	      1.03702718	      0.29193436	     16.22460144	      0.79483827	     -3.90416227	    -59.64567423	      2.66670038	    -15.41496394	     18.16420326	     -9.98322085	     -0.19316719	      6.28076106	     -4.63466491	      0.00000000	      0.00000000	      0.00000000	      0.00000000	      0.00000000	      0.00000000	      2.25846714	    -19.15559831	     -1.55411635	      8.78985031
      0.34583333	      7.32074243	     -3.14238605	     -9.25430525	     -0.34418788	      1.03755385	      0.29165822	     16.14155205	      0.94195007	     -4.39055689	    -58.67479421	      2.91123752	    -15.17308777	     17.91285484	    -10.61412033	     -0.38747130	      6.59209195	     -4.53646439	      0.00000000	      0.00000000	      0.00000000	      0.00000000	      0.00000000	      0.00000000	      2.37608387	    -19.55476352	     -1.29053442	      8.29779696
      0.35000000	      7.32071650	     -3.24606407	     -9.07411612	     -0.33936502	      1.03762107	      0.29168259	     16.40043206	      1.12899366	     -4.59500542	    -57.75062396	      3.21305758	    -15.17877528	     17.79752063	    -10.97045269	     -0.49940910	      6.73095032	     -4.42520640	      0.00000000	      0.00000000	      0.00000000	      0.00000000	      0.00000000	      0.00000000	      2.50362553	    -19.59749202	     -1.12342218	      8.20697379
      0.35416667	      7.31605346	     -3.18978851	     -9.04880866	     -0.33501624	      1.03743135	      0.29201707	     16.84994031	      1.15727385	     -4.69448089	    -57.05590210	      3.29033843	    -15.19058110	     17.78491637	    -11.24327212	     -0.42723682	      6.72797649	     -4.38429147	      0.00000000	      0.00000000	      0.00000000	      0.00000000	      0.00000000	      0.00000000	      2.58532686	    -19.71154304	     -1.24118585	      8.18195571
      0.35833333	      7.27953266	     -3.19229668	     -8.88776468	     -0.32995332	      1.03742390	      0.29225602	     17.06981392	      1.26770691	     -4.83577200	    -55.98059876	      3.52470185	    -15.23134581	     17.74603465	    -11.55351137	     -0.44473160	      6.81281995	     -4.29302314	      0.00000000	      0.00000000	      0.00000000	      0.00000000	      0.00000000	      0.00000000	      2.72769314	    -19.62481229	     -1.26483162	      8.11646919
      0.36250000	      7.24971424	     -3.39734167	     -8.59600588	     -0.32502662	      1.03749935	      0.29218279	     17.22956681	      1.54534550	     -5.17743321	    -54.84312405	      3.85954640	    -15.30723750	     17.63126689	    -11.88020851	     -0.69906133	      7.04946812	     -4.20449839	      0.00000000	      0.00000000	      0.00000000	      0.00000000	      0.00000000	      0.00000000	      2.85489664	    -19.64021124	     -0.97668991	      7.96179117
      0.36666667	      7.65845969	     -3.73977190	     -8.07698370	     -0.32034629	      1.03823082	      0.29168479	     16.83145087	      1.80420131	     -5.79681261	    -53.56593079	      4.10766821	    -15.36050147	     16.60024448	    -12.65543459	     -1.07564780	      7.49165797	     -4.11015531	      0.00000000	      0.00000000	      0.00000000	      0.00000000	      0.00000000	      0.00000000	      2.97699484	    -20.24874038	     -0.48182838	      7.32172632
      0.37083333	      7.62131717	     -3.65287635	     -8.03251211	     -0.31568345	      1.03797287	      0.29198917	     17.15844600	      1.79587506	     -5.90704113	    -52.60023426	      4.24320499	    -15.39687906	     16.56295654	    -12.91439112	     -0.97507296	      7.46649132	     -4.06061659	      0.00000000	      0.00000000	      0.00000000	      0.00000000	      0.00000000	      0.00000000	      3.09149274	    -20.23034859	     -0.61046847	      7.30998705
